<svg width="155" height="136" viewBox="0 0 155 136" fill="none" xmlns="http://www.w3.org/2000/svg">
<path fill-rule="evenodd" clip-rule="evenodd" d="M146.678 127.263C145.649 128.178 145 129.513 145 131C145 133.761 147.238 136 150 136C152.761 136 155 133.761 155 131C155 128.239 152.761 126 150 126C149.444 126 148.908 126.091 148.408 126.259C146.086 122.205 143.666 117.868 141.137 113.339L141.137 113.338L141.137 113.338C131.642 96.3278 120.628 76.5943 107.579 58.8988C89.8128 34.8067 68.0951 14.2255 40.9586 9.3278C26.2246 6.66856 16.3649 5.57981 10.0056 5.18995L9.92269 0.34523L0.0229372 6.28898L10.1203 11.8905L10.0399 7.19591C16.3076 7.58806 26.0464 8.6687 40.6033 11.296C66.9618 16.0533 88.2843 36.1038 105.969 60.0858C118.937 77.6704 129.851 97.2254 139.331 114.21C141.88 118.776 144.325 123.156 146.678 127.263Z" fill="#F7A81A"/>
</svg>
