<svg width="194" height="384" viewBox="0 0 194 384" fill="none" xmlns="http://www.w3.org/2000/svg">
<path fill-rule="evenodd" clip-rule="evenodd" d="M189.039 9.99985C191.782 9.97899 194 7.74847 194 5C194 2.23858 191.761 0 189 0C186.239 0 184 2.23858 184 5C184 7.07903 185.269 8.86169 187.075 9.61578C180.384 37.9431 176.926 67.5884 174.199 97.3834C173.415 105.94 172.693 114.506 171.971 123.057C170.063 145.662 168.164 168.164 165.182 190.107C156.964 250.575 140.555 306.488 93.3415 347.747C81.6903 357.929 65.2455 364.642 49.3207 369.04C33.9819 373.277 19.2207 375.342 9.89348 376.318L9.51336 371.582L0.00732841 378.137L10.4372 383.092L10.0535 378.313C19.4423 377.332 34.3454 375.252 49.8532 370.968C65.8884 366.539 82.6728 359.726 94.6576 349.253C142.423 307.512 158.925 250.997 167.164 190.376C170.153 168.379 172.059 145.8 173.968 123.177V123.177L173.969 123.17C174.689 114.632 175.41 106.088 176.19 97.5658C178.919 67.7635 182.37 38.2061 189.039 9.99985Z" fill="#F7A81A"/>
</svg>
