<svg width="124" height="103" viewBox="0 0 124 103" fill="none" xmlns="http://www.w3.org/2000/svg">
<path fill-rule="evenodd" clip-rule="evenodd" d="M119 10C121.761 10 124 7.76142 124 5C124 2.23858 121.761 0 119 0C116.238 0 114 2.23858 114 5C114 6.42976 114.6 7.71936 115.562 8.63065C113.889 11.3553 112.158 14.2316 110.364 17.2145L110.364 17.2146L110.363 17.2148C102.845 29.7116 94.2002 44.0799 83.9245 57.0074C69.913 74.6347 53.0387 89.3488 32.1876 92.8401C22.1333 94.5236 14.979 95.3437 10.0186 95.7178L10.0208 91.0186L0.0180559 96.7873L10.0153 102.566L10.0176 97.7234C15.0575 97.3491 22.3165 96.5208 32.5179 94.8127C54.1062 91.1979 71.377 76.0071 85.4901 58.2519C95.8542 45.2132 104.607 30.6651 112.141 18.1419C113.913 15.1969 115.618 12.3639 117.26 9.68888C117.802 9.89007 118.388 10 119 10Z" fill="#F7A81A"/>
</svg>
