<svg width="126" height="251" viewBox="0 0 126 251" fill="none" xmlns="http://www.w3.org/2000/svg">
<path fill-rule="evenodd" clip-rule="evenodd" d="M121 10C123.762 10 126 7.76142 126 5C126 2.23858 123.762 0 121 0C118.239 0 116 2.23858 116 5C116 7.00821 117.184 8.73991 118.892 9.53518C114.89 26.8084 111.483 46.4608 107.958 66.7981L107.515 69.3542C103.498 92.5187 99.2866 116.488 93.8303 138.863C88.3727 161.244 81.6819 181.975 72.7267 198.672C63.7703 215.371 52.5991 227.944 38.2246 234.158C25.5749 239.627 16.1321 242.342 9.80034 243.687L9.2207 239.032L0.0107443 245.996L10.6475 250.49L10.0484 245.678C16.522 244.316 26.1463 241.559 39.0183 235.994C53.965 229.532 65.4184 216.53 74.4892 199.617C83.5611 182.702 90.2998 161.783 95.7733 139.337C101.248 116.886 105.47 92.8516 109.485 69.6959L109.923 67.1729C113.453 46.8107 116.85 27.2086 120.838 9.99742C120.892 9.99914 120.946 10 121 10Z" fill="#F7A81A"/>
</svg>
