<svg width="159" height="56" viewBox="0 0 159 56" fill="none" xmlns="http://www.w3.org/2000/svg">
<path fill-rule="evenodd" clip-rule="evenodd" d="M154 10C156.761 10 159 7.76142 159 5C159 2.23858 156.761 0 154 0C151.238 0 149 2.23858 149 5C149 5.59514 149.104 6.16599 149.295 6.69538C147.398 7.86845 145.443 9.09609 143.425 10.3636C120.413 24.817 89.1484 44.4535 41.8052 47.4497C26.5932 48.4124 16.485 48.7999 10.03 48.9359L10.0616 44.189L0.0234292 49.8959L9.98484 55.7358L10.0167 50.9366C16.5042 50.801 26.6558 50.4124 41.9315 49.4457C89.8152 46.4153 121.509 26.4999 144.522 12.0391L144.522 12.0389C146.524 10.7808 148.461 9.56397 150.337 8.40316C151.25 9.38546 152.553 10 154 10Z" fill="#F7A81A"/>
</svg>
